<svg width="61" height="38" viewBox="0 0 61 38" fill="none" xmlns="http://www.w3.org/2000/svg">
<path opacity="0.7" d="M12.544 10.148C14.212 10.148 15.472 10.388 16.324 10.868C17.188 11.348 17.62 12.182 17.62 13.37C17.62 14.114 17.434 14.738 17.062 15.242C16.69 15.746 16.156 16.058 15.46 16.178V16.268C15.928 16.352 16.354 16.508 16.738 16.736C17.122 16.952 17.422 17.27 17.638 17.69C17.866 18.098 17.98 18.638 17.98 19.31C17.98 20.474 17.566 21.38 16.738 22.028C15.922 22.676 14.8 23 13.372 23H8.674V10.148H12.544ZM12.85 15.386C13.762 15.386 14.386 15.242 14.722 14.954C15.07 14.666 15.244 14.24 15.244 13.676C15.244 13.1 15.034 12.686 14.614 12.434C14.206 12.182 13.558 12.056 12.67 12.056H10.978V15.386H12.85ZM10.978 17.24V21.074H13.066C14.002 21.074 14.65 20.894 15.01 20.534C15.382 20.174 15.568 19.694 15.568 19.094C15.568 18.542 15.376 18.098 14.992 17.762C14.62 17.414 13.942 17.24 12.958 17.24H10.978ZM24.2991 13.064C25.5591 13.064 26.5131 13.34 27.1611 13.892C27.8211 14.444 28.1511 15.296 28.1511 16.448V23H26.5491L26.0991 21.65H26.0271C25.6071 22.178 25.1631 22.568 24.6951 22.82C24.2271 23.06 23.5911 23.18 22.7871 23.18C21.9111 23.18 21.1851 22.934 20.6091 22.442C20.0331 21.95 19.7451 21.188 19.7451 20.156C19.7451 19.148 20.1111 18.392 20.8431 17.888C21.5871 17.384 22.7091 17.102 24.2091 17.042L25.9011 16.988V16.502C25.9011 15.89 25.7511 15.452 25.4511 15.188C25.1511 14.912 24.7311 14.774 24.1911 14.774C23.6991 14.774 23.2251 14.846 22.7691 14.99C22.3251 15.134 21.8811 15.302 21.4371 15.494L20.7171 13.91C21.1971 13.658 21.7431 13.454 22.3551 13.298C22.9791 13.142 23.6271 13.064 24.2991 13.064ZM24.7131 18.428C23.7171 18.464 23.0271 18.638 22.6431 18.95C22.2591 19.25 22.0671 19.658 22.0671 20.174C22.0671 20.642 22.1991 20.978 22.4631 21.182C22.7391 21.374 23.0991 21.47 23.5431 21.47C24.2031 21.47 24.7611 21.284 25.2171 20.912C25.6731 20.528 25.9011 19.964 25.9011 19.22V18.392L24.7131 18.428ZM34.9352 23.18C33.5312 23.18 32.4272 22.778 31.6232 21.974C30.8192 21.17 30.4172 19.904 30.4172 18.176C30.4172 16.976 30.6152 16.004 31.0112 15.26C31.4192 14.504 31.9772 13.952 32.6852 13.604C33.3932 13.244 34.2032 13.064 35.1152 13.064C35.7272 13.064 36.2732 13.124 36.7532 13.244C37.2332 13.364 37.6412 13.508 37.9772 13.676L37.3112 15.458C36.9392 15.314 36.5672 15.194 36.1952 15.098C35.8232 14.99 35.4632 14.936 35.1152 14.936C33.5312 14.936 32.7392 16.01 32.7392 18.158C32.7392 19.202 32.9372 19.988 33.3332 20.516C33.7412 21.044 34.3232 21.308 35.0792 21.308C35.6192 21.308 36.0992 21.242 36.5192 21.11C36.9392 20.978 37.3412 20.798 37.7252 20.57V22.532C37.3532 22.748 36.9512 22.91 36.5192 23.018C36.0992 23.126 35.5712 23.18 34.9352 23.18ZM42.2607 15.818C42.2607 16.13 42.2487 16.46 42.2247 16.808C42.2007 17.156 42.1767 17.486 42.1527 17.798H42.2067C42.3507 17.582 42.5307 17.336 42.7467 17.06C42.9627 16.784 43.1667 16.538 43.3587 16.322L46.2387 13.244H48.8127L44.9067 17.456L49.0647 23H46.4187L43.3947 18.824L42.2607 19.76V23H40.0107V9.32H42.2607V15.818Z" fill="white"/>
<path opacity="0.8" d="M0.646442 33.6464C0.45118 33.8417 0.45118 34.1583 0.646442 34.3536L3.82842 37.5355C4.02369 37.7308 4.34027 37.7308 4.53553 37.5355C4.73079 37.3403 4.73079 37.0237 4.53553 36.8284L1.7071 34L4.53553 31.1716C4.73079 30.9763 4.73079 30.6597 4.53553 30.4645C4.34027 30.2692 4.02369 30.2692 3.82842 30.4645L0.646442 33.6464ZM61 33.5L0.999996 33.5V34.5L61 34.5V33.5Z" fill="white"/>
</svg>
