<svg width="31" height="35" viewBox="0 0 31 35" fill="none" xmlns="http://www.w3.org/2000/svg">
<path d="M15.5266 7.54395C10.5728 7.54395 6.52563 11.5911 6.52563 16.5449C6.52563 19.1351 7.65884 21.6281 9.56911 23.3118C10.9937 24.7364 10.8642 27.7798 10.8318 27.8122C10.8318 27.9741 10.8642 28.1036 10.9937 28.2331C11.0909 28.3303 11.2527 28.395 11.3822 28.395H19.6385C19.8004 28.395 19.9299 28.3303 20.027 28.2331C20.1242 28.136 20.1889 27.9741 20.1889 27.8122C20.1889 27.7798 20.027 24.7364 21.4516 23.3118C21.484 23.2794 21.5164 23.247 21.5488 23.2146C23.4267 21.4986 24.5275 19.0703 24.5275 16.5449C24.5275 11.5911 20.4803 7.54395 15.5266 7.54395ZM20.7069 22.4699C20.6746 22.5023 20.6098 22.5671 20.6098 22.5995C19.3471 23.9593 19.1205 26.1933 19.0881 27.2618H11.9327C11.9003 26.1933 11.6736 23.8622 10.3138 22.4699C8.59779 20.9806 7.59409 18.8113 7.59409 16.5125C7.59409 12.1415 11.1232 8.6124 15.4942 8.6124C19.8651 8.6124 23.3943 12.1415 23.3943 16.5125C23.3943 18.8113 22.423 20.9806 20.7069 22.4699Z" fill="#8760ff"/>
<path d="M15.4941 9.84277C15.2027 9.84277 14.9437 10.1018 14.9437 10.3932C14.9437 10.6846 15.2027 10.9436 15.4941 10.9436C18.7643 10.9436 21.3868 13.5986 21.3868 16.8363C21.3868 17.1277 21.6459 17.3867 21.9373 17.3867C22.2286 17.3867 22.4877 17.1277 22.4877 16.8363C22.52 12.9834 19.3794 9.84277 15.4941 9.84277Z" fill="#8760ff"/>
<path d="M19.0881 29.0101H11.9003C11.1556 29.0101 10.5404 29.6253 10.5404 30.37C10.5404 31.1147 11.1556 31.7298 11.9003 31.7298H19.0557C19.8327 31.6975 20.4479 31.1147 20.4479 30.37C20.4479 29.6253 19.8327 29.0101 19.0881 29.0101ZM19.0881 30.5966H11.9003C11.7707 30.5966 11.6412 30.4995 11.6412 30.3376C11.6412 30.1757 11.7384 30.0786 11.9003 30.0786H19.0557C19.1852 30.0786 19.3147 30.1757 19.3147 30.3376C19.3147 30.4995 19.2176 30.5966 19.0881 30.5966Z" fill="#8760ff"/>
<path d="M18.0196 32.2803H12.9687C12.2241 32.2803 11.6089 32.8955 11.6089 33.6402C11.6089 34.3849 12.2241 35 12.9687 35H18.0196C18.7643 35 19.3795 34.3849 19.3795 33.6402C19.3795 32.8631 18.7643 32.2803 18.0196 32.2803ZM18.0196 33.8668H12.9687C12.8392 33.8668 12.7097 33.7697 12.7097 33.6078C12.7097 33.4459 12.8068 33.3488 12.9687 33.3488H18.0196C18.1491 33.3488 18.2786 33.4459 18.2786 33.6078C18.2786 33.7697 18.1491 33.8668 18.0196 33.8668Z" fill="#8760ff"/>
<path d="M15.4941 4.85662C15.8179 4.85662 16.0446 4.5976 16.0446 4.3062V0.550417C16.0446 0.25902 15.7855 0 15.4941 0C15.2027 0 14.9437 0.25902 14.9437 0.550417V4.3062C14.9437 4.5976 15.2027 4.85662 15.4941 4.85662Z" fill="#8760ff"/>
<path d="M24.6571 2.78446C24.3981 2.59019 24.0743 2.68732 23.9124 2.91397L21.8402 6.0222C21.646 6.28122 21.7107 6.63737 21.9698 6.79926C22.0669 6.86401 22.164 6.89639 22.2612 6.89639C22.4554 6.89639 22.6173 6.79926 22.7144 6.63737L24.7866 3.52914C24.9809 3.3025 24.9161 2.94634 24.6571 2.78446Z" fill="#8760ff"/>
<path d="M8.92165 6.76684C9.01879 6.76684 9.11592 6.73446 9.21305 6.66971C9.47207 6.50782 9.53683 6.15167 9.37494 5.89265L7.36754 2.75204C7.20565 2.49302 6.8495 2.42826 6.59048 2.59015C6.33146 2.75204 6.2667 3.10819 6.42859 3.36721L8.43599 6.50782C8.5655 6.70209 8.72739 6.76684 8.92165 6.76684Z" fill="#8760ff"/>
<path d="M5.00392 10.1989L1.7338 8.41814C1.47478 8.28863 1.11863 8.38576 0.989119 8.64478C0.827232 8.9038 0.924364 9.25995 1.21576 9.38946L4.48588 11.1702C4.58301 11.2026 4.64777 11.235 4.7449 11.235C4.93917 11.235 5.13343 11.1378 5.23056 10.9436C5.36007 10.6846 5.26294 10.3284 5.00392 10.1989Z" fill="#8760ff"/>
<path d="M30.0319 8.64478C29.9024 8.38576 29.5462 8.28863 29.2872 8.41814L25.9847 10.1989C25.7257 10.3284 25.6285 10.6846 25.758 10.9436C25.8552 11.1378 26.0494 11.235 26.2437 11.235C26.3408 11.235 26.438 11.2026 26.5027 11.1702L29.8052 9.38946C30.0642 9.25995 30.1614 8.9038 30.0319 8.64478Z" fill="#8760ff"/>
</svg>
