<svg width="271" height="135" viewBox="0 0 271 135" fill="none" xmlns="http://www.w3.org/2000/svg">
<path d="M108.165 51.696L109.567 51.1561L111.184 48.7807V47.1611L112.802 46.1893L114.959 44.6777L117.224 45.6495L120.567 43.598L122.832 43.2741L125.42 43.598L127.685 42.6262L128.655 44.6777L127.685 45.6495L130.165 47.1611H131.567L133.185 48.7807L135.341 49.5365L136.42 48.7807V47.1611H138.792L141.596 48.7807H144.4H146.988L148.39 51.696L149.038 53.3156L150.224 55.583L151.087 57.7425V59.4701L152.596 60.7658L153.459 63.3571L155.185 64.5448L156.694 66.3804L157.341 68.1079L158.528 68.8638L160.469 69.2957L164.136 68.1079V70.8073L162.518 73.5066L161.008 75.882L158.959 77.8256L156.694 80.4169L154.753 82.5764L153.459 84.9518L154.106 87.8671L155.185 89.2707V91.6462V93.8056L154.106 95.6412L152.057 96.181L151.087 97.5847L149.685 99.2043L150.224 101.904L149.685 103.091L148.175 104.171L147.42 105.143V106.223L147.096 107.518L144.508 110.649L142.136 112.269L140.087 113.241L139.008 112.269L137.606 113.241H135.773L135.018 112.269V110.649L134.155 108.706L132.43 106.654V105.143L131.783 101.904L130.812 99.2043L129.41 97.0448V95.1013L130.165 93.2658L130.812 91.1063V89.2707V87.8671L130.165 86.2475L129.41 83.8721L128.655 83.0083L127.685 81.4967V79.7691V77.1777V75.882L126.175 74.6943H124.126L123.263 73.5066L121.861 72.7508L120.028 73.5066L117.763 74.1545H114.959L112.155 74.6943L110.322 74.1545L107.626 71.995L106.871 70.8073L105.9 69.2957L105.037 68.1079L104.498 67.3521V65.9485L103.743 64.8687L104.498 63.5731V61.3056V60.2259V58.9302V57.4186L105.9 55.583L106.871 53.3156L108.165 51.696Z" stroke="white" stroke-width="3" stroke-dasharray="2 2"/>
<path d="M162.086 92.402L160.037 94.6694L157.988 95.8571V98.6645L157.018 100.716V102.875L157.988 104.063H160.037L161.224 102.875V100.716L162.626 97.2608L163.273 94.6694V92.402L162.626 91.3223L162.086 92.402Z" stroke="white" stroke-width="3" stroke-dasharray="2 2"/>
<path d="M238.332 121.339L239.087 119.503H240.812L241.675 120.151L240.812 121.339L239.087 121.987L238.332 121.339Z" stroke="white" stroke-width="3" stroke-dasharray="2 2"/>
<path d="M227.871 110.973L225.175 112.161H221.616L220.106 113.025L218.489 113.889L217.734 113.025V112.161L218.489 109.786V106.547V103.199L219.567 101.256L223.449 98.9884H225.175L227.871 96.289L228.626 95.3173L230.028 93.8056L232.292 93.0498L233.802 93.8056L234.557 92.7259L235.959 91.7541L238.547 90.9983C240.877 90.6528 240.668 91.6462 240.273 92.186L239.087 93.8056L240.273 94.6694L243.077 96.289L245.018 93.8056V92.186L246.204 90.4585L246.744 92.186L248.145 93.8056V96.7209L249.116 98.0166L250.734 101.256L252.351 103.199V105.143L251.489 108.706L249.871 110.973L248.145 112.161L246.744 114.86L245.018 116.264H243.4L242.645 117.02L241.567 117.668L240.273 117.02H238.547L237.253 116.264V114.86L236.714 113.889L235.636 112.161L234.557 113.025L233.263 110.973L231.861 110.434H230.675L227.871 110.973Z" stroke="white" stroke-width="3" stroke-dasharray="2 2"/>
<path d="M256.126 124.902H253.753C253.753 124.125 254.616 123.138 255.047 122.743L257.743 121.339L260.116 120.583L262.165 119.179V120.583L260.871 121.339L260.116 122.743H259.037L257.743 124.038L256.126 124.902Z" stroke="white" stroke-width="3" stroke-dasharray="2 2"/>
<path d="M265.185 119.935H263.783L264.322 118.424V117.236L265.832 116.588L266.48 114.321L267.127 115.94L268.098 117.236L266.48 118.424L265.185 119.935Z" stroke="white" stroke-width="3" stroke-dasharray="2 2"/>
<path d="M71.1745 132.46L68.2627 130.841H66.2137L63.4097 129.653L62.0078 127.385L60.1744 124.794L60.9293 123.822V122.419L60.1744 121.015L58.6646 119.071V117.128L58.1254 111.945L57.3705 107.302V102.983V98.9884L55.2136 96.505L52.5176 94.7774L50.7921 92.402L49.0666 89.5947L47.5568 86.0316L46.3705 85.4917V83.0083L47.5568 82.0366L46.3705 80.6329L47.5568 78.3655L49.0666 75.99L49.8215 74.9103V73.3987L49.0666 70.8073V70.0515L49.8215 70.8073L50.7921 70.0515L51.8705 68.7558H53.0568L54.1352 67.3522H55.2136L55.7529 69.2957L55.2136 70.8073L54.1352 69.2957L56.5078 67.892H58.1254L59.096 68.7558L60.8215 69.2957L62.8705 68.7558L64.1646 69.2957L66.645 72.319L67.7235 73.3987H69.449L71.9294 74.1545L73.0078 75.99L73.7627 77.6096V78.9053L75.0568 79.6611L76.2431 80.6329H77.7529L78.5078 81.1728L80.0176 82.0366H82.2823L84.1157 83.0083L86.1647 84.196L87.351 84.7359V86.0316V87.8671L85.6255 90.6744L84.1157 92.402V94.7774V98.1246L82.2823 101.256L80.7725 101.796L78.5078 102.983L76.8902 104.495V106.007L76.2431 108.922L74.4098 111.945L73.0078 113.241H71.7137H70.5274L71.1745 114.429V116.156L69.7725 117.128H68.2627V119.071H66.2137V120.259L67.0764 121.015L66.2137 122.958V123.822V124.794L67.0764 126.09V127.385L66.2137 128.681L67.0764 129.653L66.2137 132.46H67.7235L69.0176 133L71.1745 132.46Z" stroke="white" stroke-width="3" stroke-dasharray="2 2"/>
<path d="M251.597 87.4352L253.969 89.7027L253.214 90.4585L251.597 89.7027L249.763 88.083L248.685 87.4352H247.499L246.744 88.6229L244.587 88.083L243.4 87.4352H242.322L243.4 85.8156L242.322 84.8438L239.302 83.6561L237.685 83.1163V82.0365L236.606 80.201H239.302V81.0648L240.489 83.1163L241.567 82.0365L243.4 81.0648L245.342 82.0365L248.685 83.1163L250.949 84.8438L251.597 87.4352Z" stroke="white" stroke-width="3" stroke-dasharray="2 2"/>
<path d="M221.077 75.2342L218.92 76.8538L216.763 77.9336L217.194 80.417L218.273 82.1445L221.077 83.2243H223.234V82.1445L224.851 79.8771L225.498 79.0133V77.5017L224.851 76.206L225.498 74.3704L224.851 73.2907H223.234L221.077 75.2342Z" stroke="white" stroke-width="3" stroke-dasharray="2 2"/>
<path d="M219.459 85.8156L221.832 87.2193L220.645 87.8671L218.273 87.2193H216.439H214.283L213.743 85.8156H215.577H217.41H219.459Z" stroke="white" stroke-width="3" stroke-dasharray="2 2"/>
<path d="M213.851 82.4684V84.088C213.851 85.3837 212.342 85.2038 211.587 84.9518L210.077 83.3322L208.675 80.309L206.518 77.1777L204.685 75.4502V73.9385L208.244 75.4502L209.322 77.1777L211.587 78.7973V79.8771L213.851 82.4684Z" stroke="white" stroke-width="3" stroke-dasharray="2 2"/>
<path d="M225.498 64.113L226.038 61.9535C226.253 61.0897 226.918 61.5936 227.224 61.9535V64.113L228.41 65.0847L229.704 67.1362L231.538 69.2957L232.293 71.3472V73.7226H230.783L229.704 72.5349L228.41 69.8356L227.224 67.1362L225.498 64.113Z" stroke="white" stroke-width="3" stroke-dasharray="2 2"/>
<path d="M209.646 76.314L208.675 73.3987L206.842 70.5914V67.2442L208.136 68.5399V69.9435L208.675 71.1312L209.646 72.319L211.479 73.3987L212.234 75.2342V77.8256H211.479L209.646 76.314Z" stroke="white"/>
<path d="M200.371 59.2542L199.4 57.4186L196.057 57.9585L195.302 60.1179L193.577 61.3057L190.341 64.3289L189.802 66.0565V69.4037C189.543 71.4767 188.112 71.1312 187.429 70.6993L185.488 66.8123L183.116 61.3057V58.6063H181.714H180.204V56.8787H178.586L176.753 54.2874L175.567 55.2591L172.547 54.2874H169.851L168.233 52.9917L164.459 52.5598L162.733 50.5083L161.547 49.5365L160.792 50.5083L162.086 52.0199L162.733 54.2874H164.459L165.645 55.799L167.586 54.2874L168.665 55.2591L170.929 56.8787V58.6063L169.204 61.3057L166.939 62.3854L164.459 63.789L162.086 65.0847L160.253 66.8123H157.988L156.91 65.0847V63.1412L155.724 61.3057L153.674 59.2542V57.4186L150.439 53.6395L149.469 51.0482L148.282 52.0199L146.988 48.4568H148.929L149.469 45.8655V43.49L147.635 44.1379L145.263 43.49H142.674L141.272 40.6827V39.711H139.978L138.684 40.6827L139.331 42.1944L138.684 43.49L137.174 42.7342L137.714 41.6545L135.88 40.6827L135.125 37.8754L133.184 36.6877L130.38 34.7442C129.172 33.6213 129.518 34.8522 129.841 35.608L131.243 37.2276C132.357 38.0554 134.414 39.711 133.723 39.711C133.033 39.711 133.076 41.3666 133.184 42.1944L131.243 39.711L128.223 37.2276L126.714 36.1478L124.018 37.2276H122.508L121.537 38.9552L119.272 40.6827V42.7342L116.576 43.49H114.096L112.155 42.1944L112.91 37.2276H117.331L118.302 36.1478V33.8804L116.576 31.9369L119.272 31.397L121.537 30.1013L124.557 27.7259H125.743L126.714 26.7542V24.7027L127.9 23.7309V25.1346L129.302 24.7027V23.191L128.223 22.4352L126.714 23.191L125.096 22.4352V19.6279L129.841 16.0648L133.184 13.5814L135.88 12.0698H140.518L143.322 13.5814L147.635 14.1213C149.016 15.2442 148.21 15.8848 147.635 16.0648H145.91L143.322 15.201L145.91 17.3605H147.635L148.929 16.0648L150.439 15.201L151.086 14.1213L152.92 15.201L155.724 14.1213H159.39L163.165 13.5814H165.537L164.243 12.0698L164.782 10.99H167.047L168.557 12.0698L170.822 10.99L172.547 9.91031H174.92V8.7226L178.478 7.85881H180.743L181.929 6.99503H183.978L186.028 7.85881H189.047L189.802 8.7226L189.047 9.91031L193.037 10.4502H193.9H195.841H197.675H201.126L205.008 12.0698H207.273H209.106L209.645 10.4502L213.204 10.99L217.41 12.0698H221.077H223.557L226.361 13.5814H231.645L232.616 12.9336H235.204L239.194 13.5814L242.753 14.6611L245.018 15.5249H247.498L249.008 17.1445H245.881L244.263 16.0648L242.753 17.1445L245.018 18.2243V19.412L242.753 21.0316H240.488C238.245 21.6362 238.691 22.6512 239.194 23.0831L241.028 23.8389L241.567 26.6462V29.5615H240.488L237.684 26.6462L235.851 23.8389L236.714 20.2758L235.851 19.412L234.557 20.2758H233.155H231.645V22.1113H229.057H225.175L223.557 23.0831L222.479 25.6744L224.204 26.6462H225.93L228.302 27.6179H229.596L231.645 29.5615L233.155 31.0731V32.2608L233.802 34.4203L232.616 33.7724L231.645 32.2608L230.135 30.1013H229.596L230.135 32.2608V34.4203L229.057 37.0116H227.332L226.361 37.8754L225.93 39.1711V40.1429L226.361 41.2226L228.302 42.6263L229.057 44.1379L228.302 45.3256H226.361L225.93 43.3821L223.557 41.7625L222.479 40.1429C221.098 40.9203 220.609 40.4668 220.537 40.1429L219.243 39.1711L217.41 41.2226L219.243 42.6263H220.537L222.479 43.3821L219.998 45.0017L222.479 47.2691L223.557 48.8887L224.204 51.1562L223.557 54.0714L222.479 56.2309L219.998 57.4186L217.41 57.9585L216.008 59.2542L214.606 57.9585L213.204 58.9302L212.557 60.6578L214.606 63.1412L216.008 65.5166V68.216L214.606 69.4037L213.635 70.6993H212.557V69.4037L210.724 68.216L208.567 66.8123H207.812V68.216L206.733 66.8123L205.871 64.3289L205.008 63.1412L203.93 63.789H202.851V62.3854L202.096 60.6578L200.371 59.2542Z" stroke="white" stroke-width="3" stroke-dasharray="2 2"/>
<path d="M230.89 48.0249L230.351 46.5133L230.675 45.5415L231.645 44.5698H232.939L234.449 43.598L235.959 41.8704L235.312 40.4668L234.126 38.1993V36.7957V35.1761L235.528 36.1478L237.469 36.7957L236.93 37.8754H235.528V39.495H236.498L237.469 41.0067V42.1944L237.9 43.598V45.3256H235.959L234.773 46.5133L233.479 46.2973H232.508L231.645 45.8655L231.106 46.2973L231.969 47.2691L231.645 48.5648L230.89 48.0249Z" stroke="white" stroke-width="3" stroke-dasharray="2 2"/>
<path d="M163.165 44.0299L160.577 42.3023V39.711L157.88 37.0116V35.5L160.577 33.0166L162.626 34.6362L161.763 35.5H160.577V37.0116L162.626 37.9834H164.028L164.782 39.1711L163.165 39.711L164.028 41.2226L164.782 42.8422L163.165 44.0299Z" stroke="white" stroke-width="3" stroke-dasharray="2 2"/>
<path d="M146.449 38.6312L143.969 39.495L142.459 37.3355L143.106 35.392L145.263 33.6644L146.449 35.392H148.175V33.6644H150.224V35.392L152.057 36.5797L153.783 38.6312L152.057 39.495L149.361 38.6312H146.449Z" stroke="white" stroke-width="3" stroke-dasharray="2 2"/>
<path d="M118.949 25.3505L120.782 28.0498L121.537 28.6977L120.782 29.6694L118.194 30.4253H116.145L116.792 28.6977V28.0498L118.194 26.5382L116.792 25.3505V24.3787V23.299H118.194L118.949 25.3505Z" stroke="white" stroke-width="3" stroke-dasharray="2 2"/>
<path d="M113.018 26.8622L114.744 26.1063C116.124 25.5017 115.822 26.3583 115.499 26.8622L114.744 28.4818L113.018 29.3455V26.8622Z" stroke="white" stroke-width="3" stroke-dasharray="2 2"/>
<path d="M105.469 17.1445L107.841 16.3887H110.537L111.724 17.1445L109.351 18.5482H106.763L105.469 17.1445Z" stroke="white" stroke-width="3" stroke-dasharray="2 2"/>
<path d="M85.7335 16.2807L86.8119 14.5531C88.2786 13.9485 88.2858 12.7176 88.1061 12.1777L86.8119 9.80231L84.4394 7.85879H82.606L80.7727 7.10298V5.91527H84.4394L86.8119 4.72756L90.1551 4.07972L95.4394 4.72756L98.6747 3.53986H104.93H109.351L111.939 4.72756L110.322 7.10298L109.351 8.93853L107.302 9.80231L105.685 10.7741L107.302 12.1777L105.685 13.0415L102.665 14.0133L100.508 14.5531L98.6747 15.309L95.4394 16.2807L92.4198 17.9003L90.1551 21.0315H88.1061L85.7335 19.304V16.2807Z" stroke="white" stroke-width="3" stroke-dasharray="2 2"/>
<path d="M74.0863 5.26744L72.0372 7.10299L74.6255 8.07475L76.6745 7.10299L79.2627 6.2392L84.0078 5.26744L87.1353 3L81.5274 3.64784H77.7529V5.26744H76.6745H74.0863Z" stroke="white" stroke-width="3" stroke-dasharray="2 2"/>
<path d="M69.0176 10.0182H66.8607L64.7039 11.206L66.8607 12.5016H69.0176H71.498L73.4392 14.8771V15.6329H71.498L70.2039 17.1445L71.498 18.7641L74.0862 19.5199L75.7039 18.0083V16.3887H76.5666C78.9823 16.9933 78.9392 16.1367 78.6157 15.6329L77.3215 13.9053L75.7039 11.9618L74.0862 11.206H72.7921L71.498 10.5581L69.0176 10.0182Z" stroke="white" stroke-width="3" stroke-dasharray="3 3"/>
<path d="M46.0471 9.26245L44.4295 10.0183L42.4883 10.7741L43.1353 11.9618L44.4295 10.7741H46.5863L47.4491 11.9618L46.0471 13.6894H47.9883H49.2824H51.0079L52.9491 13.2575L55.2138 12.9335V11.9618V10.7741H54.4589H53.4883L52.5177 10.0183L51.4393 10.7741L50.0373 10.0183L47.9883 9.26245H46.0471Z" stroke="white" stroke-width="3" stroke-dasharray="2 2"/>
<path d="M76.5671 30.9651L78.6165 32.2608L76.5671 32.9086H74.5176L73.5469 32.2608L74.5176 31.505L76.5671 29.6694V30.9651Z" stroke="white" stroke-width="3" stroke-dasharray="3 3"/>
<path d="M55.7529 41.9784L59.5275 39.0631L61.9 38.3073L63.4098 36.4718L65.9981 35.0681H66.9686V36.4718H68.5863L71.0667 35.0681L68.5863 33.9884L69.449 31.7209H67.6157L68.5863 29.9934H71.6059H73.9785L76.351 28.8057L77.9687 27.294L76.351 26.7542L75.1647 25.0266L74.5177 21.3555L71.6059 22.9751L70.5275 21.3555V20.1678L66.9686 19.088L65.1353 20.1678L64.0569 22.4352V23.9469L61.9 25.8904L60.0667 26.7542V28.1578L58.449 29.4535L57.3706 28.1578L58.0176 25.5665L55.7529 25.0266L54.351 23.9469L52.1941 22.4352L53.5961 20.1678L56.5078 19.088L58.449 18.0083L60.9294 17.2525L62.4392 16.3887L65.1353 17.2525L64.4883 18.6562L61.9 18.0083L63.4098 15.5249H65.9981L67.6157 14.3372V13.1495H65.9981L63.4098 14.3372L62.4392 13.1495L61.9 11.4219L60.0667 12.1778V13.1495L58.449 14.3372V13.1495H57.3706V14.3372H55.7529L53.5961 14.8771L52.1941 14.3372L49.6059 14.8771V15.5249L46.6941 14.8771L43.6745 13.1495H40.2235H37.4196L32.998 14.3372L29.9784 13.1495L22.5372 12.1778H19.4097L15.2038 13.1495L13.8019 13.7974C13.1189 13.7974 11.8823 14.1429 12.3999 15.5249L10.6744 16.3887H8.51754C8.30186 16.7126 8.15088 17.49 9.27245 18.0083L7.65479 19.088H5.71361L4.74302 20.8156L3.34106 21.3555L4.74302 22.4352L0.968506 25.5665L7.65479 22.9751L11.3215 21.3555H12.3999L15.8509 20.1678L18.8705 21.3555L21.1352 22.9751L22.2136 24.3787C21.8542 25.6744 21.1352 28.6113 21.1352 29.9934C23.0764 29.9934 24.3705 32.0449 23.2921 32.4768C22.4293 32.8223 20.3444 35.2841 19.4097 36.4718L16.9293 39.8189L17.6842 45.4336L19.4097 47.809V49.8605L20.1646 52.8837L21.1352 55.1512L22.2136 56.4469V52.8837L21.1352 50.8322V49.2126H22.2136V51.696L23.9391 54.3954L25.9882 57.6346V60.118L30.7333 63.1412H35.047L36.6647 65.0847L39.4686 66.1645H40.547L41.5176 68L43.4588 70.4834L46.1549 71.8871L48.2039 70.4834H46.1549L43.998 68V63.897H41.5176L40.547 63.1412L41.5176 59.5781C41.913 59.0022 42.1647 58.0233 40.0078 58.7143L38.498 60.7658L36.0176 61.6296L34.2921 60.118L33.1058 57.6346L34.2921 53.6395L35.047 51.696L38.498 49.8605L41.5176 50.8322L43.998 49.2126L45.6157 49.8605L47.5568 50.8322V53.6395L48.2039 54.3954L49.6059 53.6395V51.696L48.7431 49.2126L50.7921 47.809L52.5176 46.4053L55.2137 45.4336V43.0582L55.7529 41.9784Z" stroke="white" stroke-width="3" stroke-dasharray="2 2"/>
<path d="M56.5085 61.5216H53.4883L54.3512 59.794H55.4298L58.45 60.4418L56.5085 61.5216Z" stroke="white" stroke-width="3" stroke-dasharray="2 2"/>
<path d="M49.0666 56.6628H45.5078L46.4784 57.4186L48.3117 58.3904L49.9294 59.5781L53.2725 59.0382L52.1941 58.3904L49.0666 56.6628Z" stroke="white" stroke-width="3" stroke-dasharray="2 2"/>
<path d="M47.5568 33.9884H50.5764L48.6352 35.608L47.5568 37.9834L48.096 38.9552L49.3901 37.9834L50.5764 35.0681H52.5176V36.7957L54.7823 35.608V33.9884H53.596L52.5176 33.3405L51.4391 32.1528H48.6352L47.5568 33.9884Z" stroke="white" stroke-width="3" stroke-dasharray="2 2"/>
<path d="M66.4294 8.50664L71.7138 9.4784L72.9 8.50664H69.7726L67.8314 7.53488L66.4294 8.50664Z" stroke="white" stroke-width="3" stroke-dasharray="2 2"/>
<path d="M72.2536 4.29565L71.4986 5.80728H69.9885L68.4784 5.26742L69.9885 4.29565H72.2536Z" stroke="white" stroke-width="3" stroke-dasharray="2 2"/>
<path d="M131.782 25.4585L132.753 23.6229L133.4 22.3272L133.939 21.3555L132.753 20.0598V18.8721L135.018 18.1163L136.42 15.9568L137.93 17.1445L135.881 18.8721L136.42 20.8156H140.086L141.488 21.3555L140.086 22.3272H137.93V23.6229H136.42V25.4585L135.018 26.4302H133.939L131.782 27.1861L130.704 26.4302H128.439L129.841 25.4585H131.782Z" stroke="white" stroke-width="3" stroke-dasharray="2 2"/>
<path d="M225.498 82.3605L226.469 79.8771C225.951 79.0997 226.685 78.3295 227.116 78.0415C227.116 77.5233 229.92 77.8256 231.322 78.0415C231.322 79.7691 229.309 79.1933 228.302 78.6894L227.547 79.4452L227.871 80.5249H229.489L228.302 81.4967L228.949 83.0083L228.302 83.7641L227.547 82.3605L227.116 83.0083V84.9518L225.498 84.6279V82.3605Z" stroke="white" stroke-width="3" stroke-dasharray="2 2"/>
</svg>
