<svg width="136" height="134" viewBox="0 0 136 134" fill="none" xmlns="http://www.w3.org/2000/svg">
<path d="M34.6046 120.681L17.9364 130.26L1.5 120.274L1.72731 100.715L18.3954 91.1364L34.8363 101.122L34.6046 120.681Z" stroke="white" stroke-width="2" stroke-miterlimit="10"/>
<path d="M67.7384 121.082L51.0702 130.66L34.6338 120.675L34.8611 101.115L51.5292 91.537L67.9701 101.522L67.7384 121.082Z" stroke="white" stroke-width="2" stroke-miterlimit="10"/>
<path d="M101.129 121.979L84.4565 131.553L68.02 121.567L68.2473 102.008L84.9198 92.4293L101.356 102.415L101.129 121.979Z" stroke="white" stroke-width="2" stroke-miterlimit="10"/>
<path d="M134.273 122.426L117.6 132L101.164 122.019L101.391 102.455L118.059 92.8767L134.5 102.862L134.273 122.426Z" stroke="white" stroke-width="2" stroke-miterlimit="10"/>
<path d="M52.055 91.1944L35.3869 100.773L18.9504 90.7873L19.1778 71.2279L35.8503 61.6495L52.2867 71.635L52.055 91.1944Z" stroke="white" stroke-width="2" stroke-miterlimit="10"/>
<path d="M85.0333 91.5925L68.3652 101.171L51.9287 91.1854L52.156 71.626L68.8285 62.0476L85.265 72.0331L85.0333 91.5925Z" stroke="white" stroke-width="2" stroke-miterlimit="10"/>
<path d="M117.954 92.0712L101.286 101.65L84.8496 91.6641L85.0769 72.1047L101.745 62.5263L118.186 72.5118L117.954 92.0712Z" stroke="white" stroke-width="2" stroke-miterlimit="10"/>
<path d="M69.0814 61.5151L52.4089 71.0935L35.9724 61.108L36.1997 41.5441L52.8722 31.9702L69.3087 41.9512L69.0814 61.5151Z" stroke="white" stroke-width="2" stroke-miterlimit="10"/>
<path d="M102.016 61.9132L85.3483 71.4916L68.9119 61.5061L69.1392 41.9422L85.8073 32.3683L102.248 42.3493L102.016 61.9132Z" stroke="white" stroke-width="2" stroke-miterlimit="10"/>
<path d="M85.8902 31.5449L69.2221 41.1233L52.7812 31.1378L53.0129 11.5739L69.6811 2L86.1219 11.981L85.8902 31.5449Z" stroke="white" stroke-width="2" stroke-miterlimit="10"/>
</svg>
