<svg width="133" height="116" viewBox="0 0 133 116" fill="none" xmlns="http://www.w3.org/2000/svg">
<path d="M0 115.678H8.30466L4.15084 108.506L0 115.678Z" fill="white"/>
<path d="M8.32101 101.331L4.17017 108.506H12.4718H12.4733L8.32101 101.331Z" fill="white"/>
<path d="M8.32104 115.678H16.6257L12.4719 108.506L8.32104 115.678Z" fill="white"/>
<path d="M16.6257 115.678H24.9289L20.7766 108.506L16.6257 115.678Z" fill="white"/>
<path d="M24.9453 101.331L20.793 108.506H29.0961H29.0976L24.9453 101.331Z" fill="white"/>
<path d="M12.4646 94.1595L8.31372 101.331H8.32118H16.6184L12.4646 94.1595Z" fill="white"/>
<path d="M20.7856 94.1595H20.7871L16.6333 86.9868L12.4824 94.1595H20.7856Z" fill="white"/>
<path d="M24.9379 101.331L20.7856 94.1595L16.6362 101.331H24.9379Z" fill="white"/>
<path d="M33.25 115.678H41.5532L37.3993 108.506L33.25 115.678Z" fill="white"/>
<path d="M24.9482 115.678H33.2499L29.0961 108.506L24.9482 115.678Z" fill="white"/>
<path d="M41.5695 101.331L37.4187 108.506H45.7204H45.7234L41.5695 101.331Z" fill="white"/>
<path d="M41.571 115.678H49.8742L45.7204 108.506L41.571 115.678Z" fill="white"/>
<path d="M49.8743 115.678H58.1774L54.0251 108.506L49.8743 115.678Z" fill="white"/>
<path d="M54.043 108.506H62.3461L58.1938 101.331L54.043 108.506Z" fill="white"/>
<path d="M58.1968 115.678H66.4999L62.3461 108.506L58.1968 115.678Z" fill="white"/>
<path d="M45.7146 94.1595L41.5637 101.331H41.5697H49.8684L45.7146 94.1595Z" fill="white"/>
<path d="M49.8833 86.9868L45.7324 94.1595H54.0326H54.0356L49.8833 86.9868Z" fill="white"/>
<path d="M58.1879 101.331L54.0326 94.1595L49.8862 101.331H58.1879Z" fill="white"/>
<path d="M20.7751 79.8156L16.6243 86.9868H16.6332H24.9274L20.7751 79.8156Z" fill="white"/>
<path d="M29.0946 79.8155H29.0976L24.9453 72.6413L20.793 79.8155H29.0946Z" fill="white"/>
<path d="M33.2485 86.9868L29.0946 79.8156L24.9468 86.9868H33.2485Z" fill="white"/>
<path d="M37.3994 79.8156L33.2485 86.9868H41.5532L37.3994 79.8156Z" fill="white"/>
<path d="M37.4172 79.8155H45.7219L41.5681 72.6413L37.4172 79.8155Z" fill="white"/>
<path d="M49.8757 86.9868L45.7219 79.8156L41.571 86.9868H49.8757Z" fill="white"/>
<path d="M29.0903 65.47L24.938 72.6413H24.9455H33.2427L29.0903 65.47Z" fill="white"/>
<path d="M37.4081 65.47H37.4111L33.2573 58.2988L29.1064 65.47H37.4081Z" fill="white"/>
<path d="M41.5622 72.6413L37.4084 65.47L33.2605 72.6413H41.5622Z" fill="white"/>
<path d="M66.5 115.678H74.8032L70.6493 108.506L66.5 115.678Z" fill="white"/>
<path d="M74.8181 101.331L70.6687 108.506H78.9689H78.9719L74.8181 101.331Z" fill="white"/>
<path d="M74.821 115.678H83.1242L78.9689 108.506L74.821 115.678Z" fill="white"/>
<path d="M83.1243 115.678H91.4274L87.2736 108.506L83.1243 115.678Z" fill="white"/>
<path d="M87.2915 108.506H95.5962L91.4423 101.331L87.2915 108.506Z" fill="white"/>
<path d="M78.9643 94.1595L74.812 101.331H74.818H83.1167L78.9643 94.1595Z" fill="white"/>
<path d="M83.133 86.9868L78.9807 94.1595H87.2824H87.2854L83.133 86.9868Z" fill="white"/>
<path d="M91.4364 101.331L87.2826 94.1595L83.1362 101.331H91.4364Z" fill="white"/>
<path d="M99.7485 115.678H108.052L103.901 108.506L99.7485 115.678Z" fill="white"/>
<path d="M91.4453 115.678H99.7485L95.5962 108.506L91.4453 115.678Z" fill="white"/>
<path d="M108.07 101.331L103.917 108.506H112.219H112.223L108.07 101.331Z" fill="white"/>
<path d="M108.07 115.678H116.373L112.219 108.506L108.07 115.678Z" fill="white"/>
<path d="M116.373 115.678H124.677L120.523 108.506L116.373 115.678Z" fill="white"/>
<path d="M120.542 108.506H128.846L124.692 101.331L120.542 108.506Z" fill="white"/>
<path d="M133 115.678L128.846 108.506L124.695 115.678H133Z" fill="white"/>
<path d="M112.213 94.1595L108.063 101.331H108.069H116.367L112.213 94.1595Z" fill="white"/>
<path d="M120.533 94.1595H120.536L116.382 86.9868L112.232 94.1595H120.533Z" fill="white"/>
<path d="M124.686 101.331L120.533 94.1595L116.385 101.331H124.686Z" fill="white"/>
<path d="M87.2736 79.8156L83.1243 86.9868H83.1332H91.4274L87.2736 79.8156Z" fill="white"/>
<path d="M91.4423 72.6413L87.2915 79.8155H95.5932H95.5962L91.4423 72.6413Z" fill="white"/>
<path d="M99.7455 86.9868L95.5932 79.8156L91.4453 86.9868H99.7455Z" fill="white"/>
<path d="M103.898 79.8156L99.7456 86.9868H108.052L103.898 79.8156Z" fill="white"/>
<path d="M112.219 79.8155L108.067 72.6413L103.914 79.8155H112.219Z" fill="white"/>
<path d="M116.373 86.9868L112.219 79.8156L108.07 86.9868H116.373Z" fill="white"/>
<path d="M95.5871 65.47L91.4363 72.6413H91.4422H99.741L95.5871 65.47Z" fill="white"/>
<path d="M103.907 65.47H103.908L99.7546 58.2988L95.6052 65.47H103.907Z" fill="white"/>
<path d="M108.06 72.6413L103.907 65.47L99.7573 72.6413H108.06Z" fill="white"/>
<path d="M37.4008 51.1246L33.25 58.2988H33.2575H41.5532L37.4008 51.1246Z" fill="white"/>
<path d="M45.7204 51.1246H45.7234L41.5695 43.9518L37.4187 51.1246H45.7204Z" fill="white"/>
<path d="M49.8742 58.2988L45.7204 51.1246L41.571 58.2988H49.8742Z" fill="white"/>
<path d="M54.0251 51.1246L49.8743 58.2988H58.1774L54.0251 51.1246Z" fill="white"/>
<path d="M54.043 51.1246H62.3461L58.1938 43.9518L54.043 51.1246Z" fill="white"/>
<path d="M45.7146 36.7791L41.5637 43.9518H41.5697H49.8684L45.7146 36.7791Z" fill="white"/>
<path d="M54.0326 36.7791H54.0356L49.8833 29.6078L45.7324 36.7791H54.0326Z" fill="white"/>
<path d="M58.1879 43.9518L54.0326 36.7791L49.8862 43.9518H58.1879Z" fill="white"/>
<path d="M66.4985 58.2988H66.4999L62.3461 51.1246L58.1968 58.2988H66.4985Z" fill="white"/>
<path d="M70.6493 51.1246L66.5 58.2988H74.8017L70.6493 51.1246Z" fill="white"/>
<path d="M74.8181 43.9518L70.6687 51.1246H78.9689H78.9719L74.8181 43.9518Z" fill="white"/>
<path d="M83.1243 58.2988L78.969 51.1246L74.8181 58.2988H83.1243Z" fill="white"/>
<path d="M87.2736 51.1246L83.1243 58.2988H91.4274L87.2736 51.1246Z" fill="white"/>
<path d="M95.5962 51.1246L91.4423 43.9518L87.2915 51.1246H95.5962Z" fill="white"/>
<path d="M99.7485 58.2988L95.5962 51.1246L91.4453 58.2988H99.7485Z" fill="white"/>
<path d="M78.9643 36.7791L74.812 43.9518H74.818H83.1167L78.9643 36.7791Z" fill="white"/>
<path d="M87.2824 36.7791H87.2854L83.133 29.6078L78.9807 36.7791H87.2824Z" fill="white"/>
<path d="M91.4364 43.9518L87.2826 36.7791L83.1362 43.9518H91.4364Z" fill="white"/>
<path d="M54.0251 22.4336L49.8743 29.6078H49.8832H58.1774L54.0251 22.4336Z" fill="white"/>
<path d="M62.3432 22.4336H62.3461L58.1938 15.2608L54.043 22.4336H62.3432Z" fill="white"/>
<path d="M66.497 29.6078L62.3431 22.4336L58.1968 29.6078H66.497Z" fill="white"/>
<path d="M70.6464 22.4336L66.4971 29.6078H74.8017L70.6464 22.4336Z" fill="white"/>
<path d="M78.9689 22.4336L74.8151 15.2608L70.6658 22.4336H78.9689Z" fill="white"/>
<path d="M83.1243 29.6078L78.969 22.4336L74.8181 29.6078H83.1243Z" fill="white"/>
<path d="M62.3373 8.0896L58.188 15.2609H58.194H66.4912L62.3373 8.0896Z" fill="white"/>
<path d="M70.6584 8.08958L66.5061 0.91684L62.3552 8.08958H70.6554H70.6584Z" fill="white"/>
<path d="M74.8092 15.2609L70.6554 8.0896L66.509 15.2609H74.8092Z" fill="white"/>
</svg>
